<svg width="141" height="70" viewBox="0 0 141 70" fill="none" xmlns="http://www.w3.org/2000/svg">
<path d="M3.88547 24.5743L1.2678 21.5061C-4.57374 41.5708 14.4112 48.2196 21.5478 47.2625C43.6189 43.5468 41.5799 24.4899 37.2263 17.5652L34.5535 21.5061C39.7558 34.7249 27.3618 42.7868 21.1896 43.1246C5.34584 42.7868 2.81084 30.2604 3.88547 24.5743Z" fill="white"/>
<path d="M17.7175 42.3926L0 16.1857L17.7175 27.3891L46.7323 0.478516L17.7175 42.3926Z" fill="white"/>
<path d="M3.60913 16.439L6.41968 18.3813C13.8704 8.5404 24.2933 11.5223 28.5734 14.2434L31.3013 11.5129C17.3698 3.49608 7.03506 11.4567 3.60913 16.439Z" fill="white"/>
<path d="M52.4082 47.0936V0.197144H59.0488V40.7601H85.198V47.0936H52.4082Z" fill="white"/>
<path d="M99.4713 5.99577V0H75.3612C66.3895 0.900772 64.9915 9.08279 65.414 13.0612C65.3259 23.5102 73.2028 26.5728 77.1522 26.798H90.9294C94.0596 26.8881 95.9719 29.2751 96.6332 32.6811C96.6332 39.1273 91.701 40.5535 89.2762 40.8725V47.5157C101.4 47.1217 104.1 38.3673 102.695 30.1759C101.571 23.6228 94.0431 19.8733 90.9294 19.8733H77.1522C72.8096 19.2878 71.5587 15.0879 71.476 13.0612C71.8287 7.8142 76.0684 6.16466 78.1442 5.99577H99.4713Z" fill="white"/>
<path d="M104.045 23.7296V47.3749H110.3V30.035H126.75C133.391 30.035 140.748 27.9239 140.996 14.1871C141.193 3.27728 134.484 0.431524 130.911 0.365845H104.045V6.02382H126.75C129.138 5.83616 134.058 7.20608 134.631 14.1871C135.204 21.1681 129.616 23.4575 126.75 23.7296H104.045Z" fill="white"/>
<path d="M3.58154 54.2715V52.0195L137.028 51.8788V54.2715H3.58154Z" fill="white"/>
<path d="M27.4667 66.1787C26.9218 66.1787 26.4781 66.1327 26.1358 66.0406C25.7934 65.9449 25.5191 65.8455 25.3129 65.7424L25.1693 64.8699C25.4086 64.9877 25.7105 65.0963 26.075 65.1957C26.4432 65.2951 26.8739 65.3448 27.3673 65.3448C27.9306 65.3448 28.3687 65.2491 28.6816 65.0576C28.9945 64.8662 29.151 64.4962 29.151 63.9476C29.151 63.631 29.0958 63.3788 28.9853 63.191C28.8749 63.0033 28.6798 62.8413 28.4 62.7051C28.1238 62.5652 27.7336 62.416 27.2292 62.2577C26.7064 62.1031 26.2849 61.9337 25.9646 61.7497C25.6443 61.5619 25.4105 61.33 25.2632 61.0538C25.1196 60.774 25.0497 60.4188 25.0533 59.988C25.0681 59.4799 25.1951 59.0786 25.4344 58.7841C25.6774 58.4859 25.9995 58.2742 26.4008 58.149C26.8058 58.0202 27.2587 57.9557 27.7594 57.9557C28.087 57.9557 28.4165 57.9852 28.7479 58.0441C29.0792 58.0993 29.394 58.1748 29.6922 58.2705L29.8082 59.1762C29.5983 59.0915 29.302 59.0068 28.9191 58.9222C28.5362 58.8375 28.1459 58.7952 27.7483 58.7952C27.2402 58.7952 26.8297 58.8798 26.5168 59.0492C26.2039 59.2149 26.0474 59.5388 26.0474 60.0211C26.0548 60.2531 26.1063 60.45 26.202 60.612C26.3014 60.7704 26.4726 60.9121 26.7156 61.0373C26.9623 61.1624 27.3102 61.295 27.7594 61.4349C28.1717 61.5711 28.5288 61.7055 28.8307 61.838C29.1363 61.9669 29.3885 62.1197 29.5873 62.2964C29.7861 62.4694 29.9334 62.6903 30.0291 62.9591C30.1285 63.2242 30.1782 63.561 30.1782 63.9697C30.1782 64.6471 29.9665 65.1846 29.5431 65.5823C29.1197 65.9799 28.4276 66.1787 27.4667 66.1787ZM31.5672 66.0461L31.9206 58.1104H33.4338L35.2065 63.9476L35.582 65.2233L35.9244 63.9476L37.7027 58.1104H39.2158L39.5085 66.0461H38.4979L38.3267 60.59L38.3212 58.9443L37.8518 60.8495L36.2226 65.8694H34.9138L33.2847 60.8495L32.8208 58.9443L32.8042 60.5955L32.5833 66.0461H31.5672ZM41.378 66.0461V58.1104H42.3996V61.9595L46.0776 58.1104H47.0992V58.4031L43.8962 61.7386L47.3864 65.7866V66.0461H46.3261L43.1838 62.335L42.3996 63.1192V66.0461H41.378ZM48.3888 66.0461V58.1104H49.4381L53.5855 64.4502V58.1104H54.5574V66.0406H53.5523L49.3608 59.7064V66.0461H48.3888ZM58.8265 66.0461L58.6608 65.2399L61.2177 62.1804C61.4055 61.9522 61.5785 61.7018 61.7369 61.4294C61.8988 61.1532 61.9798 60.8642 61.9798 60.5623C61.9798 60.3488 61.9375 60.1482 61.8528 59.9604C61.7718 59.7726 61.6374 59.6198 61.4497 59.502C61.2619 59.3842 61.0097 59.3253 60.6931 59.3253C60.4869 59.3253 60.2734 59.3474 60.0525 59.3916C59.8353 59.4358 59.6328 59.4836 59.445 59.5352C59.3383 59.572 59.2315 59.6088 59.1247 59.6456C59.018 59.6787 58.913 59.7137 58.8099 59.7505L58.9204 58.889C59.1229 58.8191 59.3254 58.7583 59.5279 58.7068C59.7119 58.6589 59.9181 58.6166 60.1464 58.5798C60.3783 58.5393 60.6158 58.519 60.8588 58.519C61.5914 58.519 62.1271 58.7086 62.4658 59.0878C62.8045 59.4671 62.9739 59.953 62.9739 60.5458C62.9739 60.9912 62.8745 61.3907 62.6757 61.7441C62.4805 62.0976 62.232 62.4547 61.9301 62.8155L59.8426 65.2509H62.891L62.7806 66.0461H58.8265ZM67.1628 66.1511V64.6269H63.9708L63.7168 63.9531L66.6547 58.6737L68.1292 58.7123V63.8537H69.0515V64.6269H68.1292V66.1235L67.1628 66.1511ZM64.7936 63.8758L65.8484 63.8537H67.1628V61.4128L67.218 59.3253L66.2019 61.3355L64.7936 63.8758ZM72.5419 66.4935L72.2768 65.7535C72.5308 65.7535 72.748 65.7424 72.9284 65.7203C73.1088 65.6982 73.2598 65.6596 73.3813 65.6043C73.5065 65.5454 73.604 65.4718 73.674 65.3834C73.8065 65.2178 73.8838 64.9324 73.9059 64.5275C73.917 64.3323 73.9225 64.1041 73.9225 63.8427V58.1104H74.9552L74.9331 64.3452C74.9331 64.6471 74.9 64.9288 74.8337 65.1902C74.7711 65.4516 74.6533 65.678 74.4803 65.8694C74.3035 66.0609 74.0587 66.2118 73.7458 66.3223C73.4365 66.4364 73.0352 66.4935 72.5419 66.4935ZM76.0736 66.0461L78.7023 58.1104H79.8123L82.4355 66.0461H81.3531L80.8119 64.2403H77.6972L77.1505 66.0461H76.0736ZM77.8794 63.6218H80.6241L79.2601 59.1817L77.8794 63.6218ZM83.5484 66.0461V58.1104H84.57V61.9595L88.248 58.1104H89.2696V58.4031L86.0666 61.7386L89.5568 65.7866V66.0461H88.4965L85.3542 62.335L84.57 63.1192V66.0461H83.5484ZM89.7861 66.0461L92.4148 58.1104H93.5248L96.148 66.0461H95.0656L94.5244 64.2403H91.4097L90.863 66.0461H89.7861ZM91.5919 63.6218H94.3366L92.9726 59.1817L91.5919 63.6218ZM97.2609 66.0461V58.1104H99.6355C100.217 58.1104 100.714 58.1693 101.127 58.2871C101.543 58.4049 101.861 58.6258 102.082 58.9498C102.303 59.2738 102.413 59.7469 102.413 60.3691C102.413 60.9213 102.318 61.3557 102.126 61.6724C101.935 61.9853 101.688 62.2136 101.386 62.3571C101.084 62.5007 100.768 62.5928 100.436 62.6333L102.667 65.7314V66.0461H101.668L99.4036 62.7327H98.2991V66.0461H97.2609ZM98.2991 61.9595H99.5361C99.9043 61.9595 100.212 61.9356 100.458 61.8877C100.705 61.8362 100.902 61.7515 101.049 61.6337C101.2 61.5159 101.305 61.3631 101.364 61.1753C101.427 60.9839 101.458 60.7464 101.458 60.4629C101.458 60.1205 101.425 59.8463 101.359 59.6401C101.296 59.4339 101.184 59.2738 101.022 59.1596C100.863 59.0492 100.648 58.9737 100.376 58.9332C100.103 58.8927 99.7644 58.8725 99.3594 58.8725H98.2991V61.9595ZM105.266 66.0461V58.9056H102.991V58.1104H108.59L108.458 58.9056H106.298V66.0461H105.266ZM108.234 66.0461L110.863 58.1104H111.973L114.596 66.0461H113.514L112.972 64.2403H109.858L109.311 66.0461H108.234ZM110.04 63.6218H112.785L111.421 59.1817L110.04 63.6218Z" fill="white"/>
</svg>
