<svg width="184" height="90" viewBox="0 0 184 90" fill="none" xmlns="http://www.w3.org/2000/svg">
<path d="M5.07027 31.3909L1.6543 27.4716C-5.96869 53.1021 18.806 61.5952 28.119 60.3727C56.921 55.6263 54.2601 31.283 48.5789 22.4375L45.091 27.4716C51.8798 44.3572 35.7061 54.6554 27.6516 55.0869C6.976 54.6554 3.66792 38.6543 5.07027 31.3909Z" fill="#E77D35"/>
<path d="M23.1207 54.152L0 20.6755L23.1207 34.9866L60.9839 0.611221L23.1207 54.152Z" fill="#E77D35"/>
<path d="M4.71045 20.9992L8.37811 23.4803C18.101 10.9096 31.7026 14.7187 37.288 18.1946L40.8477 14.7067C22.6676 4.46598 9.18117 14.6348 4.71045 20.9992Z" fill="#E77D35"/>
<path d="M68.3911 60.1569V0.251717H77.0569V52.0665H111.181V60.1569H68.3911Z" fill="#E77D35"/>
<path d="M129.806 7.65895V0H98.3436C86.6359 1.15064 84.8116 11.6023 85.363 16.6843C85.2479 30.0317 95.527 33.9439 100.681 34.2315H118.66C122.744 34.3466 125.24 37.3958 126.103 41.7467C126.103 49.9809 119.666 51.8028 116.502 52.2103V60.6963C132.323 60.1929 135.847 49.0101 134.013 38.5464C132.546 30.1755 122.723 25.386 118.66 25.386H100.681C95.014 24.6381 93.3815 19.2732 93.2736 16.6843C93.7339 9.9818 99.2666 7.87469 101.975 7.65895H129.806Z" fill="#E77D35"/>
<path d="M135.775 30.3121V60.5164H143.938V38.3666H165.404C174.07 38.3666 183.671 35.6698 183.994 18.1226C184.251 4.18646 175.496 0.551321 170.834 0.467422H135.775V7.69488H165.404C168.521 7.45516 174.94 9.20509 175.688 18.1226C176.436 27.04 169.144 29.9646 165.404 30.3121H135.775Z" fill="#E77D35"/>
<path d="M4.67432 69.326V66.4494L178.817 66.2697V69.326H4.67432Z" fill="#E77D35"/>
<path d="M35.9328 85.2154C35.2053 85.2154 34.6129 85.1539 34.1557 85.031C33.6985 84.9032 33.3322 84.7705 33.0569 84.6328L32.8652 83.4677C33.1848 83.625 33.5879 83.77 34.0746 83.9028C34.5662 84.0355 35.1413 84.1019 35.8001 84.1019C36.5523 84.1019 37.1373 83.9741 37.5551 83.7184C37.973 83.4628 38.1819 82.9687 38.1819 82.2362C38.1819 81.8135 38.1082 81.4767 37.9607 81.226C37.8132 80.9753 37.5527 80.759 37.1791 80.5771C36.8104 80.3903 36.2893 80.1912 35.6157 79.9798C34.9177 79.7733 34.3548 79.5471 33.9271 79.3013C33.4994 79.0506 33.1872 78.7409 32.9906 78.3722C32.7988 77.9986 32.7054 77.5242 32.7104 76.949C32.73 76.2706 32.8996 75.7347 33.2192 75.3415C33.5436 74.9433 33.9738 74.6606 34.5096 74.4934C35.0504 74.3214 35.6551 74.2353 36.3237 74.2353C36.7612 74.2353 37.2012 74.2747 37.6436 74.3533C38.0861 74.4271 38.5064 74.5278 38.9046 74.6557L39.0595 75.865C38.7792 75.7519 38.3835 75.6389 37.8722 75.5258C37.361 75.4127 36.8399 75.3562 36.3089 75.3562C35.6305 75.3562 35.0824 75.4693 34.6645 75.6954C34.2466 75.9166 34.0377 76.3492 34.0377 76.9932C34.0475 77.303 34.1163 77.566 34.2442 77.7823C34.3769 77.9937 34.6055 78.1829 34.93 78.3501C35.2593 78.5172 35.7239 78.6942 36.3237 78.881C36.8743 79.0629 37.3511 79.2423 37.7542 79.4193C38.1623 79.5914 38.499 79.7954 38.7645 80.0314C39.03 80.2624 39.2266 80.5574 39.3544 80.9163C39.4872 81.2702 39.5535 81.72 39.5535 82.2657C39.5535 83.1703 39.2708 83.888 38.7055 84.419C38.1401 84.9499 37.2159 85.2154 35.9328 85.2154ZM41.4083 85.0384L41.8802 74.4418H43.9007L46.2678 82.2362L46.7692 83.9397L47.2264 82.2362L49.6009 74.4418H51.6214L52.0122 85.0384H50.6627L50.4341 77.7528L50.4268 75.5553L49.8 78.0994L47.6246 84.8024H45.877L43.7016 78.0994L43.0822 75.5553L43.06 77.7602L42.7651 85.0384H41.4083ZM54.5085 85.0384V74.4418H55.8727V79.5816L60.7838 74.4418H62.1481V74.8326L57.8711 79.2866L62.5315 84.6918V85.0384H61.1157L56.9198 80.083L55.8727 81.1301V85.0384H54.5085ZM63.8701 85.0384V74.4418H65.2711L70.8091 82.9073V74.4418H72.1069V85.031H70.7648L65.1679 76.5729V85.0384H63.8701ZM77.8074 85.0384L77.5862 83.9618L81.0004 79.8765C81.2511 79.5717 81.4822 79.2374 81.6935 78.8736C81.9098 78.5049 82.018 78.119 82.018 77.7159C82.018 77.4308 81.9615 77.1629 81.8484 76.9121C81.7402 76.6614 81.5608 76.4574 81.3101 76.3001C81.0594 76.1428 80.7226 76.0641 80.2998 76.0641C80.0245 76.0641 79.7394 76.0936 79.4444 76.1526C79.1544 76.2116 78.884 76.2755 78.6333 76.3443C78.4907 76.3935 78.3482 76.4427 78.2056 76.4918C78.063 76.5361 77.9229 76.5828 77.7853 76.6319L77.9328 75.4816C78.2031 75.3882 78.4735 75.307 78.7439 75.2382C78.9897 75.1743 79.265 75.1178 79.5698 75.0686C79.8795 75.0145 80.1966 74.9875 80.5211 74.9875C81.4994 74.9875 82.2146 75.2407 82.6669 75.747C83.1192 76.2534 83.3453 76.9023 83.3453 77.6938C83.3453 78.2886 83.2126 78.822 82.9471 79.294C82.6866 79.7659 82.3548 80.2428 81.9516 80.7245L79.1642 83.9765H83.2347L83.0872 85.0384H77.8074ZM88.9387 85.1785V83.1432H84.6765L84.3373 82.2436L88.2603 75.194L90.2292 75.2456V82.1109H91.4607V83.1432H90.2292V85.1416L88.9387 85.1785ZM85.7753 82.1404L87.1837 82.1109H88.9387V78.8515L89.0125 76.0641L87.6556 78.7483L85.7753 82.1404ZM96.1214 85.6357L95.7675 84.6476C96.1067 84.6476 96.3967 84.6328 96.6376 84.6033C96.8785 84.5738 97.08 84.5222 97.2423 84.4485C97.4094 84.3698 97.5397 84.2715 97.6331 84.1535C97.8101 83.9323 97.9133 83.5513 97.9428 83.0105C97.9576 82.75 97.9649 82.4452 97.9649 82.0961V74.4418H99.3439L99.3144 82.7672C99.3144 83.1703 99.2701 83.5464 99.1817 83.8954C99.0981 84.2444 98.9408 84.5468 98.7097 84.8024C98.4737 85.0581 98.1468 85.2596 97.729 85.4071C97.316 85.5595 96.7802 85.6357 96.1214 85.6357ZM100.837 85.0384L104.347 74.4418H105.83L109.332 85.0384H107.887L107.164 82.6271H103.005L102.275 85.0384H100.837ZM103.249 81.8012H106.914L105.092 75.8724L103.249 81.8012ZM110.818 85.0384V74.4418H112.182V79.5816L117.094 74.4418H118.458V74.8326L114.181 79.2866L118.841 84.6918V85.0384H117.425L113.23 80.083L112.182 81.1301V85.0384H110.818ZM119.147 85.0384L122.658 74.4418H124.14L127.642 85.0384H126.197L125.474 82.6271H121.315L120.585 85.0384H119.147ZM121.559 81.8012H125.224L123.402 75.8724L121.559 81.8012ZM129.128 85.0384V74.4418H132.299C133.076 74.4418 133.74 74.5205 134.29 74.6778C134.846 74.8351 135.271 75.1301 135.566 75.5627C135.861 75.9953 136.009 76.627 136.009 77.4578C136.009 78.1952 135.881 78.7753 135.625 79.1981C135.369 79.616 135.04 79.9208 134.637 80.1125C134.234 80.3042 133.811 80.4271 133.369 80.4812L136.348 84.6181V85.0384H135.013L131.99 80.6139H130.515V85.0384H129.128ZM130.515 79.5816H132.167C132.658 79.5816 133.069 79.5496 133.398 79.4857C133.727 79.4169 133.99 79.3038 134.187 79.1465C134.389 78.9892 134.529 78.7852 134.607 78.5344C134.691 78.2788 134.733 77.9617 134.733 77.5832C134.733 77.126 134.689 76.7597 134.6 76.4844C134.516 76.2091 134.367 75.9953 134.15 75.8429C133.939 75.6954 133.651 75.5946 133.287 75.5406C132.924 75.4865 132.471 75.4594 131.931 75.4594H130.515V79.5816ZM139.817 85.0384V75.5037H136.779V74.4418H144.257L144.08 75.5037H141.196V85.0384H139.817ZM143.781 85.0384L147.291 74.4418H148.773L152.276 85.0384H150.831L150.108 82.6271H145.949L145.219 85.0384H143.781ZM146.192 81.8012H149.857L148.036 75.8724L146.192 81.8012Z" fill="#E77D35"/>
</svg>
