<svg width="149" height="149" viewBox="0 0 149 149" fill="none" xmlns="http://www.w3.org/2000/svg">
<g clip-path="url(#clip0_2265_3020)">
<path d="M74.5 0C33.355 0 0 33.355 0 74.5C0 115.647 33.355 149 74.5 149C115.647 149 149 115.647 149 74.5C149 33.355 115.647 0 74.5 0ZM74.5 139.834C38.5561 139.834 9.3125 110.444 9.3125 74.4997C9.3125 38.5558 38.5561 9.31221 74.5 9.31221C110.444 9.31221 139.688 38.5559 139.688 74.4997C139.688 110.443 110.444 139.834 74.5 139.834ZM104.232 47.24L60.5218 91.2252L40.8375 71.541C39.0192 69.7227 36.0718 69.7227 34.2512 71.541C32.433 73.3592 32.433 76.3066 34.2512 78.1249L57.2973 101.173C59.1156 102.989 62.063 102.989 63.8836 101.173C64.0931 100.964 64.2725 100.735 64.4355 100.498L110.821 53.8261C112.637 52.0078 112.637 49.0604 110.821 47.24C109 45.4217 106.053 45.4217 104.232 47.24Z" fill="#E77D35"/>
</g>
<defs>
<clipPath id="clip0_2265_3020">
<rect width="149" height="149" fill="white"/>
</clipPath>
</defs>
</svg>
