<svg width="25" height="25" viewBox="0 0 25 25" fill="none" xmlns="http://www.w3.org/2000/svg">
<path d="M2.5 19.4998C2.5 21.1998 3.8 22.4998 5.5 22.4998H19.5C21.2 22.4998 22.5 21.1998 22.5 19.4998V11.4998H2.5V19.4998ZM19.5 4.49976H17.5V3.49976C17.5 2.89976 17.1 2.49976 16.5 2.49976C15.9 2.49976 15.5 2.89976 15.5 3.49976V4.49976H9.5V3.49976C9.5 2.89976 9.1 2.49976 8.5 2.49976C7.9 2.49976 7.5 2.89976 7.5 3.49976V4.49976H5.5C3.8 4.49976 2.5 5.79976 2.5 7.49976V9.49976H22.5V7.49976C22.5 5.79976 21.2 4.49976 19.5 4.49976Z" fill="white"/>
</svg>
