<svg width="141" height="70" viewBox="0 0 141 70" fill="none" xmlns="http://www.w3.org/2000/svg">
<path d="M3.88547 24.5741L1.2678 21.5058C-4.57374 41.5705 14.4112 48.2194 21.5478 47.2623C43.6189 43.5466 41.5799 24.4896 37.2263 17.5649L34.5535 21.5058C39.7558 34.7247 27.3618 42.7866 21.1896 43.1244C5.34584 42.7866 2.81084 30.2602 3.88547 24.5741Z" fill="white"/>
<path d="M17.7175 42.3926L0 16.1857L17.7175 27.3891L46.7323 0.478516L17.7175 42.3926Z" fill="white"/>
<path d="M3.60913 16.4392L6.41968 18.3815C13.8704 8.54052 24.2933 11.5225 28.5734 14.2435L31.3013 11.5131C17.3698 3.4962 7.03506 11.4568 3.60913 16.4392Z" fill="white"/>
<path d="M52.4082 47.0937V0.197266H59.0488V40.7602H85.198V47.0937H52.4082Z" fill="white"/>
<path d="M99.4713 5.99577V0H75.3612C66.3895 0.900772 64.9915 9.08279 65.414 13.0612C65.3259 23.5102 73.2028 26.5728 77.1522 26.798H90.9294C94.0596 26.8881 95.9719 29.2751 96.6332 32.6811C96.6332 39.1273 91.701 40.5535 89.2762 40.8725V47.5157C101.4 47.1217 104.1 38.3673 102.695 30.1759C101.571 23.6228 94.0431 19.8733 90.9294 19.8733H77.1522C72.8096 19.2878 71.5587 15.0879 71.476 13.0612C71.8287 7.8142 76.0684 6.16466 78.1442 5.99577H99.4713Z" fill="white"/>
<path d="M104.045 23.7295V47.3748H110.3V30.0349H126.75C133.391 30.0349 140.748 27.9237 140.996 14.1869C141.193 3.27715 134.484 0.431402 130.911 0.365723H104.045V6.0237H126.75C129.138 5.83604 134.058 7.20596 134.631 14.1869C135.204 21.1679 129.616 23.4574 126.75 23.7295H104.045Z" fill="white"/>
<path d="M3.58154 54.2716V52.0197L137.028 51.8789V54.2716H3.58154Z" fill="white"/>
<path d="M27.4667 66.1789C26.9218 66.1789 26.4781 66.1329 26.1358 66.0409C25.7934 65.9451 25.5191 65.8457 25.3129 65.7427L25.1693 64.8701C25.4086 64.9879 25.7105 65.0965 26.075 65.1959C26.4432 65.2953 26.8739 65.345 27.3673 65.345C27.9306 65.345 28.3687 65.2493 28.6816 65.0579C28.9945 64.8664 29.151 64.4964 29.151 63.9479C29.151 63.6312 29.0958 63.379 28.9853 63.1913C28.8749 63.0035 28.6798 62.8415 28.4 62.7053C28.1238 62.5654 27.7336 62.4163 27.2292 62.258C26.7064 62.1033 26.2849 61.934 25.9646 61.7499C25.6443 61.5621 25.4105 61.3302 25.2632 61.0541C25.1196 60.7743 25.0497 60.419 25.0533 59.9882C25.0681 59.4802 25.1951 59.0789 25.4344 58.7844C25.6774 58.4861 25.9995 58.2744 26.4008 58.1493C26.8058 58.0204 27.2587 57.956 27.7594 57.956C28.087 57.956 28.4165 57.9854 28.7479 58.0443C29.0792 58.0996 29.394 58.175 29.6922 58.2708L29.8082 59.1764C29.5983 59.0918 29.302 59.0071 28.9191 58.9224C28.5362 58.8377 28.1459 58.7954 27.7483 58.7954C27.2402 58.7954 26.8297 58.8801 26.5168 59.0494C26.2039 59.2151 26.0474 59.5391 26.0474 60.0214C26.0548 60.2533 26.1063 60.4503 26.202 60.6123C26.3014 60.7706 26.4726 60.9123 26.7156 61.0375C26.9623 61.1627 27.3102 61.2952 27.7594 61.4351C28.1717 61.5714 28.5288 61.7057 28.8307 61.8383C29.1363 61.9671 29.3885 62.1199 29.5873 62.2966C29.7861 62.4697 29.9334 62.6906 30.0291 62.9593C30.1285 63.2244 30.1782 63.5613 30.1782 63.9699C30.1782 64.6474 29.9665 65.1849 29.5431 65.5825C29.1197 65.9801 28.4276 66.1789 27.4667 66.1789ZM31.5672 66.0464L31.9206 58.1106H33.4338L35.2065 63.9479L35.582 65.2235L35.9244 63.9479L37.7027 58.1106H39.2158L39.5085 66.0464H38.4979L38.3267 60.5902L38.3212 58.9445L37.8518 60.8498L36.2226 65.8697H34.9138L33.2847 60.8498L32.8208 58.9445L32.8042 60.5957L32.5833 66.0464H31.5672ZM41.378 66.0464V58.1106H42.3996V61.9598L46.0776 58.1106H47.0992V58.4033L43.8962 61.7389L47.3864 65.7868V66.0464H46.3261L43.1838 62.3353L42.3996 63.1195V66.0464H41.378ZM48.3888 66.0464V58.1106H49.4381L53.5855 64.4504V58.1106H54.5574V66.0409H53.5523L49.3608 59.7066V66.0464H48.3888ZM58.8265 66.0464L58.6608 65.2401L61.2177 62.1807C61.4055 61.9524 61.5785 61.7021 61.7369 61.4296C61.8988 61.1535 61.9798 60.8645 61.9798 60.5626C61.9798 60.349 61.9375 60.1484 61.8528 59.9606C61.7718 59.7729 61.6374 59.6201 61.4497 59.5023C61.2619 59.3845 61.0097 59.3256 60.6931 59.3256C60.4869 59.3256 60.2734 59.3476 60.0525 59.3918C59.8353 59.436 59.6328 59.4839 59.445 59.5354C59.3383 59.5722 59.2315 59.609 59.1247 59.6459C59.018 59.679 58.913 59.714 58.8099 59.7508L58.9204 58.8893C59.1229 58.8193 59.3254 58.7586 59.5279 58.707C59.7119 58.6592 59.9181 58.6168 60.1464 58.58C60.3783 58.5395 60.6158 58.5193 60.8588 58.5193C61.5914 58.5193 62.1271 58.7089 62.4658 59.0881C62.8045 59.4673 62.9739 59.9533 62.9739 60.546C62.9739 60.9915 62.8745 61.391 62.6757 61.7444C62.4805 62.0978 62.232 62.4549 61.9301 62.8157L59.8426 65.2512H62.891L62.7806 66.0464H58.8265ZM67.1628 66.1513V64.6271H63.9708L63.7168 63.9534L66.6547 58.6739L68.1292 58.7126V63.854H69.0515V64.6271H68.1292V66.1237L67.1628 66.1513ZM64.7936 63.8761L65.8484 63.854H67.1628V61.413L67.218 59.3256L66.2019 61.3357L64.7936 63.8761ZM72.5419 66.4937L72.2768 65.7537C72.5308 65.7537 72.748 65.7427 72.9284 65.7206C73.1088 65.6985 73.2598 65.6598 73.3813 65.6046C73.5065 65.5457 73.604 65.4721 73.674 65.3837C73.8065 65.218 73.8838 64.9327 73.9059 64.5277C73.917 64.3326 73.9225 64.1043 73.9225 63.8429V58.1106H74.9552L74.9331 64.3455C74.9331 64.6474 74.9 64.929 74.8337 65.1904C74.7711 65.4518 74.6533 65.6782 74.4803 65.8697C74.3035 66.0611 74.0587 66.2121 73.7458 66.3225C73.4365 66.4366 73.0352 66.4937 72.5419 66.4937ZM76.0736 66.0464L78.7023 58.1106H79.8123L82.4355 66.0464H81.3531L80.8119 64.2405H77.6972L77.1505 66.0464H76.0736ZM77.8794 63.622H80.6241L79.2601 59.182L77.8794 63.622ZM83.5484 66.0464V58.1106H84.57V61.9598L88.248 58.1106H89.2696V58.4033L86.0666 61.7389L89.5568 65.7868V66.0464H88.4965L85.3542 62.3353L84.57 63.1195V66.0464H83.5484ZM89.7861 66.0464L92.4148 58.1106H93.5248L96.148 66.0464H95.0656L94.5244 64.2405H91.4097L90.863 66.0464H89.7861ZM91.5919 63.622H94.3366L92.9726 59.182L91.5919 63.622ZM97.2609 66.0464V58.1106H99.6355C100.217 58.1106 100.714 58.1695 101.127 58.2873C101.543 58.4051 101.861 58.626 102.082 58.95C102.303 59.274 102.413 59.7471 102.413 60.3693C102.413 60.9215 102.318 61.356 102.126 61.6726C101.935 61.9855 101.688 62.2138 101.386 62.3574C101.084 62.501 100.768 62.593 100.436 62.6335L102.667 65.7316V66.0464H101.668L99.4036 62.7329H98.2991V66.0464H97.2609ZM98.2991 61.9598H99.5361C99.9043 61.9598 100.212 61.9358 100.458 61.888C100.705 61.8364 100.902 61.7518 101.049 61.6339C101.2 61.5161 101.305 61.3633 101.364 61.1756C101.427 60.9841 101.458 60.7467 101.458 60.4632C101.458 60.1208 101.425 59.8465 101.359 59.6403C101.296 59.4342 101.184 59.274 101.022 59.1599C100.863 59.0494 100.648 58.974 100.376 58.9335C100.103 58.893 99.7644 58.8727 99.3594 58.8727H98.2991V61.9598ZM105.266 66.0464V58.9058H102.991V58.1106H108.59L108.458 58.9058H106.298V66.0464H105.266ZM108.234 66.0464L110.863 58.1106H111.973L114.596 66.0464H113.514L112.972 64.2405H109.858L109.311 66.0464H108.234ZM110.04 63.622H112.785L111.421 59.182L110.04 63.622Z" fill="white"/>
</svg>
