<svg width="25" height="25" viewBox="0 0 25 25" fill="none" xmlns="http://www.w3.org/2000/svg">
<path d="M8.60004 12.4997C9.63439 12.4997 10.6264 12.0888 11.3578 11.3574C12.0892 10.626 12.5 9.63406 12.5 8.59971C12.5 7.56537 12.0892 6.57339 11.3578 5.84199C10.6264 5.1106 9.63439 4.69971 8.60005 4.69971C7.5657 4.69971 6.57372 5.1106 5.84233 5.84199C5.11094 6.57338 4.70005 7.56536 4.70005 8.59971C4.70005 9.63405 5.11094 10.626 5.84233 11.3574C6.57372 12.0888 7.5657 12.4997 8.60004 12.4997ZM15.4244 18.6737C16.0604 18.9341 16.8692 19.0997 17.8988 19.0997C22.6988 19.0997 22.6988 15.4997 22.6988 15.4997C22.6988 15.0225 22.5094 14.5649 22.1721 14.2273C21.8348 13.8898 21.3772 13.7 20.9 13.6997L15.3464 13.6997C15.818 14.2709 16.1012 15.0017 16.1012 15.7997L16.1012 16.2269C16.0987 16.328 16.0919 16.4288 16.0808 16.5293C15.9991 17.2789 15.7757 18.0064 15.4244 18.6737ZM20.9 9.49972C20.9 10.2954 20.584 11.0584 20.0214 11.621C19.4588 12.1836 18.6957 12.4997 17.9 12.4997C17.1044 12.4997 16.3413 12.1836 15.7787 11.621C15.2161 11.0584 14.9 10.2954 14.9 9.49971C14.9 8.70406 15.2161 7.941 15.7787 7.37839C16.3413 6.81578 17.1044 6.49971 17.9 6.49971C18.6957 6.49971 19.4588 6.81579 20.0214 7.3784C20.584 7.941 20.9 8.70407 20.9 9.49972ZM2.30004 16.0997C2.30004 15.4632 2.5529 14.8527 3.00299 14.4027C3.45308 13.9526 4.06352 13.6997 4.70004 13.6997L12.5 13.6997C13.1366 13.6997 13.747 13.9526 14.1971 14.4027C14.6472 14.8527 14.9 15.4632 14.9 16.0997C14.9 16.0997 14.9 20.8997 8.60004 20.8997C2.30004 20.8997 2.30004 16.0997 2.30004 16.0997Z" fill="white"/>
</svg>
