<svg width="187" height="187" viewBox="0 0 187 187" fill="none" xmlns="http://www.w3.org/2000/svg">
<path fill-rule="evenodd" clip-rule="evenodd" d="M101.5 109.958H109.958V118.417H101.5V109.958ZM109.958 118.417H118.417V126.875H109.958V118.417ZM109.958 126.875H118.417V135.333H109.958V126.875ZM126.875 126.875H135.333V135.333H126.875V126.875ZM126.875 135.333H135.333V143.792H126.875V135.333ZM101.5 126.875H109.958V135.333H101.5V126.875ZM118.417 126.875H126.875V135.333H118.417V126.875ZM118.417 135.333H126.875V143.792H118.417V135.333ZM143.792 126.875H152.25V135.333H143.792V126.875ZM143.792 118.417H152.25V126.875H143.792V118.417ZM152.25 109.958H160.708V118.417H152.25V109.958ZM135.333 126.875H143.792V135.333H135.333V126.875ZM135.333 135.333H143.792V143.792H135.333V135.333ZM126.875 143.792H135.333V152.25H126.875V143.792ZM118.417 143.792H126.875V152.25H118.417V143.792ZM135.333 143.792H143.792V152.25H135.333V143.792ZM143.792 143.792H152.25V152.25H143.792V143.792ZM126.875 152.25H135.333V160.708H126.875V152.25ZM109.958 152.25H118.417V160.708H109.958V152.25ZM118.417 152.25H126.875V160.708H118.417V152.25ZM101.5 152.25H109.958V160.708H101.5V152.25ZM101.5 160.708H109.958V169.167H101.5V160.708ZM109.958 169.167H118.417V177.625H109.958V169.167ZM118.417 169.167H126.875V177.625H118.417V169.167ZM135.333 169.167H143.792V177.625H135.333V169.167ZM143.792 169.167H152.25V177.625H143.792V169.167ZM135.333 152.25H143.792V160.708H135.333V152.25ZM143.792 152.25H152.25V160.708H143.792V152.25ZM152.25 143.792H160.708V152.25H152.25V143.792ZM152.25 135.333H160.708V143.792H152.25V135.333ZM152.25 160.708H160.708V169.167H152.25V160.708ZM152.25 152.25H160.708V160.708H152.25V152.25ZM160.708 143.792H169.167V152.25H160.708V143.792ZM160.708 135.333H169.167V143.792H160.708V135.333ZM169.167 160.708H177.625V169.167H169.167V160.708ZM169.167 143.792H177.625V152.25H169.167V143.792ZM169.167 152.25H177.625V160.708H169.167V152.25ZM152.25 126.875H160.708V135.333H152.25V126.875ZM101.5 135.333H109.958V143.792H101.5V135.333ZM93.0417 135.333H101.5V143.792H93.0417V135.333ZM93.0417 143.792H101.5V152.25H93.0417V143.792ZM109.958 143.792H118.417V152.25H109.958V143.792ZM84.5833 143.792H93.0417V152.25H84.5833V143.792ZM101.5 143.792H109.958V152.25H101.5V143.792ZM84.5833 152.25H93.0417V160.708H84.5833V152.25ZM84.5833 160.708H93.0417V169.167H84.5833V160.708ZM84.5833 0H93.0417V8.45833H84.5833V0ZM93.0417 8.45833H101.5V16.9167H93.0417V8.45833ZM84.5833 25.375H93.0417V33.8333H84.5833V25.375ZM93.0417 33.8333H101.5V42.2917H93.0417V33.8333ZM84.5833 42.2917H93.0417V50.75H84.5833V42.2917ZM93.0417 42.2917H101.5V50.75H93.0417V42.2917ZM93.0417 50.75H101.5V59.2083H93.0417V50.75ZM93.0417 59.2083H101.5V67.6667H93.0417V59.2083ZM84.5833 67.6667H93.0417V76.125H84.5833V67.6667ZM93.0417 67.6667H101.5V76.125H93.0417V67.6667ZM84.5833 76.125H93.0417V84.5833H84.5833V76.125ZM0 84.5833H8.45833V93.0417H0V84.5833ZM8.45833 93.0417H16.9167V101.5H8.45833V93.0417ZM25.375 84.5833H33.8333V93.0417H25.375V84.5833ZM25.375 93.0417H33.8333V101.5H25.375V93.0417ZM33.8333 84.5833H42.2917V93.0417H33.8333V84.5833ZM42.2917 93.0417H50.75V101.5H42.2917V93.0417ZM50.75 84.5833H59.2083V93.0417H50.75V84.5833ZM59.2083 93.0417H67.6667V101.5H59.2083V93.0417ZM59.2083 84.5833H67.6667V93.0417H59.2083V84.5833ZM67.6667 84.5833H76.125V93.0417H67.6667V84.5833ZM76.125 84.5833H84.5833V93.0417H76.125V84.5833ZM84.5833 93.0417H93.0417V101.5H84.5833V93.0417ZM101.5 93.0417H109.958V101.5H101.5V93.0417ZM109.958 84.5833H118.417V93.0417H109.958V84.5833ZM118.417 84.5833H126.875V93.0417H118.417V84.5833ZM126.875 84.5833H135.333V93.0417H126.875V84.5833ZM118.417 101.5H126.875V109.958H118.417V101.5ZM101.5 177.625H109.958V186.083H101.5V177.625ZM93.0417 177.625H101.5V186.083H93.0417V177.625ZM93.0417 101.5H101.5V109.958H93.0417V101.5ZM84.5833 101.5H93.0417V109.958H84.5833V101.5ZM84.5833 109.958H93.0417V118.417H84.5833V109.958ZM84.5833 118.417H93.0417V126.875H84.5833V118.417ZM177.625 109.958H186.083V118.417H177.625V109.958ZM169.167 118.417H177.625V126.875H169.167V118.417ZM177.625 135.333H186.083V143.792H177.625V135.333ZM135.333 101.5H143.792V109.958H135.333V101.5ZM143.792 93.0417H152.25V101.5H143.792V93.0417ZM177.625 93.0417H186.083V101.5H177.625V93.0417ZM177.625 101.5H186.083V109.958H177.625V101.5ZM169.167 101.5H177.625V109.958H169.167V101.5ZM177.625 169.167H186.083V177.625H177.625V169.167ZM169.167 177.625H177.625V186.083H169.167V177.625ZM152.25 177.625H160.708V186.083H152.25V177.625ZM177.625 177.625H186.083V186.083H177.625V177.625Z" fill="black"/>
<path fill-rule="evenodd" clip-rule="evenodd" d="M118.416 8.4585H177.625V67.6668H118.416V8.4585ZM8.45801 8.4585H67.6663V67.6668H8.45801V8.4585ZM8.45801 118.417H67.6663V177.625H8.45801V118.417ZM143.791 33.8335H152.25V42.2918H143.791V33.8335ZM33.833 33.8335H42.2913V42.2918H33.833V33.8335ZM33.833 143.792H42.2913V152.25H33.833V143.792Z" stroke="black" stroke-width="16.9167"/>
</svg>
