<svg width="25" height="25" viewBox="0 0 25 25" fill="none" xmlns="http://www.w3.org/2000/svg">
<path d="M12.5 3.49976C14.71 3.49976 16.5 5.28976 16.5 7.49976C16.5 9.70976 14.71 11.4998 12.5 11.4998C10.29 11.4998 8.5 9.70976 8.5 7.49976C8.5 5.28976 10.29 3.49976 12.5 3.49976ZM16.5 14.0398C16.5 15.0998 16.22 17.5698 14.31 20.3298L13.5 15.4998L14.44 13.6198C13.82 13.5498 13.17 13.4998 12.5 13.4998C11.83 13.4998 11.18 13.5498 10.56 13.6198L11.5 15.4998L10.69 20.3298C8.78 17.5698 8.5 15.0998 8.5 14.0398C6.11 14.7398 4.5 15.9998 4.5 17.4998V21.4998H20.5V17.4998C20.5 15.9998 18.9 14.7398 16.5 14.0398Z" fill="white"/>
</svg>
