<svg width="25" height="25" viewBox="0 0 25 25" fill="none" xmlns="http://www.w3.org/2000/svg">
<path d="M10 10.4998C10.4596 10.4998 10.9148 10.4092 11.3394 10.2333C11.764 10.0574 12.1499 9.79963 12.4749 9.47463C12.7999 9.14962 13.0577 8.76379 13.2336 8.33915C13.4095 7.91451 13.5 7.45938 13.5 6.99976C13.5 6.54013 13.4095 6.085 13.2336 5.66036C13.0577 5.23572 12.7999 4.84989 12.4749 4.52488C12.1499 4.19988 11.764 3.94207 11.3394 3.76618C10.9148 3.59029 10.4596 3.49976 10 3.49976C9.07174 3.49976 8.1815 3.86851 7.52513 4.52488C6.86875 5.18126 6.5 6.0715 6.5 6.99976C6.5 7.92801 6.86875 8.81825 7.52513 9.47463C8.1815 10.131 9.07174 10.4998 10 10.4998ZM2.5 20.8998V21.4998H17.5V20.8998C17.5 18.6598 17.5 17.5398 17.064 16.6838C16.6805 15.9311 16.0686 15.3192 15.316 14.9358C14.46 14.4998 13.34 14.4998 11.1 14.4998H8.9C6.66 14.4998 5.54 14.4998 4.684 14.9358C3.93139 15.3192 3.31949 15.9311 2.936 16.6838C2.5 17.5398 2.5 18.6598 2.5 20.8998Z" fill="white" stroke="white" stroke-width="2" stroke-linecap="round" stroke-linejoin="round"/>
<path d="M19.5 6.99976V12.9998M16.5 9.99976H22.5" stroke="white" stroke-width="2" stroke-linecap="round" stroke-linejoin="round"/>
</svg>
